<svg xmlns="http://www.w3.org/2000/svg" version="1.1" xmlns:xlink="http://www.w3.org/1999/xlink" xmlns:svgjs="http://svgjs.dev/svgjs" width="1500" height="428" viewBox="0 0 1500 428"><g transform="matrix(1,0,0,1,-0.9090909090909918,-1.2640929326756805)"><svg viewBox="0 0 396 113" data-background-color="#b7b7b7" preserveAspectRatio="xMidYMid meet" height="428" width="1500" xmlns="http://www.w3.org/2000/svg" xmlns:xlink="http://www.w3.org/1999/xlink"><g id="tight-bounds" transform="matrix(1,0,0,1,0.2400000000000091,0.3337441621316657)"><svg viewBox="0 0 395.52 112.33251167573667" height="112.33251167573667" width="395.52"><g><svg viewBox="0 0 584.470751653178 165.99683336925366" height="112.33251167573667" width="395.52"><g><rect width="5.996652700439475" height="120.71405031555709" x="411.2180437184279" y="22.641391526848288" fill="#ffffff" opacity="1" stroke-width="0" stroke="transparent" fill-opacity="1" class="rect-yte-0" data-fill-palette-color="primary" rx="1%" id="yte-0" data-palette-color="#ffffff"></rect></g><g transform="matrix(1,0,0,1,0,22.941675234100913)"><svg viewBox="0 0 395.52 120.11348290105184" height="120.11348290105184" width="395.52"><g id="textblocktransform"><svg viewBox="0 0 395.52 120.11348290105184" height="120.11348290105184" width="395.52" id="textblock"><g><svg viewBox="0 0 395.52 66.49572052401746" height="66.49572052401746" width="395.52"><g transform="matrix(1,0,0,1,0,0)"><svg width="395.52" viewBox="4.4 -37.9 298.42 50.05" height="66.49572052401746" data-palette-color="#ffffff"><g class="wordmark-text-0" data-fill-palette-color="primary" id="text-0"><path d="M8.6-30.25L8.6-3.85 15.35-3.85Q18.1-3.85 20.53-4.55 22.95-5.25 24.78-6.83 26.6-8.4 27.65-10.95 28.7-13.5 28.7-17.15L28.7-17.15Q28.7-20.55 27.75-23.03 26.8-25.5 25.08-27.1 23.35-28.7 20.88-29.48 18.4-30.25 15.35-30.25L15.35-30.25 8.6-30.25ZM4.4 0L4.4-34.1 15.35-34.1Q19.4-34.1 22.68-33.1 25.95-32.1 28.3-30 30.65-27.9 31.93-24.7 33.2-21.5 33.2-17.15L33.2-17.15Q33.2-12.75 31.8-9.53 30.4-6.3 28-4.17 25.6-2.05 22.35-1.03 19.1 0 15.35 0L15.35 0 4.4 0ZM39.35 0L39.35-25.2 43.35-25.65 43.35 0 39.35 0ZM38.7-32.35L38.7-32.35Q38.7-33.5 39.47-34.27 40.25-35.05 41.4-35.05L41.4-35.05Q42.6-35.05 43.42-34.27 44.25-33.5 44.25-32.35L44.25-32.35Q44.25-31.2 43.42-30.43 42.6-29.65 41.4-29.65L41.4-29.65Q40.25-29.65 39.47-30.43 38.7-31.2 38.7-32.35ZM70.25-24.55L70.25 2.4Q70.25 4.25 69.85 6 69.45 7.75 68.32 9.13 67.2 10.5 65.17 11.33 63.15 12.15 59.85 12.15L59.85 12.15Q57.75 12.1 56.2 11.9 54.65 11.7 53.25 11.33 51.85 10.95 50.7 10.45L50.7 10.45 51.75 6.95Q53.7 7.8 55.72 8.25 57.75 8.7 59.35 8.7L59.35 8.7Q61.1 8.7 62.4 8.35 63.7 8 64.57 7.18 65.45 6.35 65.87 5 66.3 3.65 66.3 1.65L66.3 1.65 66.3-2Q65.25-1.3 64.12-0.73 63-0.15 61.72 0.25 60.45 0.65 59.25 0.65L59.25 0.65Q54.6 0.65 51.9-2.63 49.2-5.9 49.2-12.4L49.2-12.4Q49.2-16.15 50.37-18.68 51.55-21.2 53.35-22.75 55.15-24.3 57.3-24.98 59.45-25.65 61.4-25.65L61.4-25.65Q63.95-25.65 66.07-25.23 68.2-24.8 70.25-24.55L70.25-24.55ZM59.7-2.85L59.7-2.85Q60.8-2.85 61.95-3.25 63.1-3.65 64.17-4.2 65.25-4.75 66.3-5.5L66.3-5.5 66.3-21.45Q65.7-21.6 64.9-21.8L64.9-21.8Q64.2-21.9 63.3-22.03 62.4-22.15 61.4-22.15L61.4-22.15Q59.3-22.15 57.8-21.4 56.3-20.65 55.32-19.35 54.35-18.05 53.9-16.3 53.45-14.55 53.45-12.6L53.45-12.6Q53.45-10.85 53.82-9.1 54.2-7.35 55-5.95 55.8-4.55 56.95-3.7 58.1-2.85 59.7-2.85ZM77.44 0L77.44-25.2 81.44-25.65 81.44 0 77.44 0ZM76.79-32.35L76.79-32.35Q76.79-33.5 77.57-34.27 78.34-35.05 79.49-35.05L79.49-35.05Q80.69-35.05 81.52-34.27 82.34-33.5 82.34-32.35L82.34-32.35Q82.34-31.2 81.52-30.43 80.69-29.65 79.49-29.65L79.49-29.65Q78.34-29.65 77.57-30.43 76.79-31.2 76.79-32.35ZM90.49-32.15L94.49-32.65 94.49-25.15 101.74-25.15 101.74-21.9 94.49-21.9 94.49-8.55Q94.49-6.9 94.57-5.8 94.64-4.7 94.89-4.05 95.14-3.4 95.59-3.13 96.04-2.85 96.74-2.85L96.74-2.85Q98.64-2.9 101.14-4.25L101.14-4.25 102.34-1.2Q100.69-0.1 99.27 0.28 97.84 0.65 96.44 0.65L96.44 0.65Q93.14 0.65 91.82-1.23 90.49-3.1 90.49-7.45L90.49-7.45 90.49-21.9 85.89-21.9 85.89-25.15 90.49-25.15 90.49-32.15ZM120.84-5.85L120.84-11.55Q119.84-11.5 118.94-11.45 118.04-11.4 117.16-11.33 116.29-11.25 115.59-11.15L115.59-11.15Q111.99-10.7 110.49-9.58 108.99-8.45 108.99-6.35L108.99-6.35Q108.99-4.6 110.06-3.73 111.14-2.85 112.89-2.85L112.89-2.85Q115.29-2.85 117.16-3.68 119.04-4.5 120.84-5.85L120.84-5.85ZM121.29 0.4L120.79-2.35Q118.44-1 116.41-0.18 114.39 0.65 112.04 0.65L112.04 0.65Q108.69 0.65 106.71-0.98 104.74-2.6 104.74-6.35L104.74-6.35Q104.74-8.3 105.74-9.75 106.74-11.2 108.36-12.18 109.99-13.15 112.04-13.7 114.09-14.25 116.24-14.4L116.24-14.4Q117.14-14.5 118.59-14.58 120.04-14.65 120.84-14.7L120.84-14.7Q120.84-16.45 120.74-17.82 120.64-19.2 120.14-20.18 119.64-21.15 118.66-21.65 117.69-22.15 115.89-22.15L115.89-22.15Q114.44-22.15 113.09-21.98 111.74-21.8 110.69-21.6L110.69-21.6Q109.44-21.35 108.39-21.05L108.39-21.05 107.59-24.5Q108.84-24.8 110.29-25.05L110.29-25.05Q111.54-25.3 113.19-25.48 114.84-25.65 116.74-25.65L116.74-25.65Q119.29-25.65 120.86-24.9 122.44-24.15 123.31-22.88 124.19-21.6 124.51-19.98 124.84-18.35 124.84-16.55L124.84-16.55 124.84-4.55Q124.84-3.85 124.86-3.08 124.89-2.3 124.96-1.55 125.04-0.8 125.14 0L125.14 0 121.29 0.4ZM131.89 0L131.89-37.45 135.89-37.9 135.89 0 131.89 0ZM148.08-30.25L148.08-3.85 154.83-3.85Q157.58-3.85 160.01-4.55 162.43-5.25 164.26-6.83 166.08-8.4 167.13-10.95 168.18-13.5 168.18-17.15L168.18-17.15Q168.18-20.55 167.23-23.03 166.28-25.5 164.56-27.1 162.83-28.7 160.36-29.48 157.88-30.25 154.83-30.25L154.83-30.25 148.08-30.25ZM143.88 0L143.88-34.1 154.83-34.1Q158.88-34.1 162.16-33.1 165.43-32.1 167.78-30 170.13-27.9 171.41-24.7 172.68-21.5 172.68-17.15L172.68-17.15Q172.68-12.75 171.28-9.53 169.88-6.3 167.48-4.17 165.08-2.05 161.83-1.03 158.58 0 154.83 0L154.83 0 143.88 0ZM178.88 0L178.88-21.1Q178.88-22.25 178.63-24.7L178.63-24.7 182.33-25.2 182.73-21.55 182.78-21.55Q183.68-22.7 184.53-23.55 185.38-24.4 186.31-25.03 187.23-25.65 188.08-25.65L188.08-25.65Q189.23-25.7 191.28-25.4L191.28-25.4 190.38-21.55Q188.73-21.85 188.08-21.8L188.08-21.8Q187.23-21.8 186.28-21 185.33-20.2 184.63-19.3L184.63-19.3Q183.73-18.2 182.88-16.8L182.88-16.8 182.88 0 178.88 0ZM213.53-3.95L214.28-0.6Q213.13-0.25 211.9 0 210.68 0.25 209.2 0.45 207.73 0.65 206.13 0.65L206.13 0.65Q203.63 0.65 201.48-0.05 199.33-0.75 197.73-2.3 196.13-3.85 195.2-6.33 194.28-8.8 194.28-12.4L194.28-12.4Q194.28-15.65 195.18-18.13 196.08-20.6 197.65-22.28 199.23-23.95 201.35-24.8 203.48-25.65 205.98-25.65L205.98-25.65Q208.43-25.65 210.23-24.7 212.03-23.75 213.2-22.13 214.38-20.5 214.95-18.32 215.53-16.15 215.53-13.75L215.53-13.75 214.78-11.55 198.63-11.55Q198.63-10 199.03-8.45 199.43-6.9 200.4-5.65 201.38-4.4 202.95-3.63 204.53-2.85 206.88-2.85L206.88-2.85Q208.38-2.85 209.63-3.03 210.88-3.2 211.8-3.43 212.73-3.65 213.53-3.95L213.53-3.95ZM198.78-14.75L211.38-14.75Q211.38-15.1 211.23-16.3 211.08-17.5 210.53-18.8 209.98-20.1 208.83-21.13 207.68-22.15 205.78-22.15L205.78-22.15Q203.68-22.15 202.33-21.28 200.98-20.4 200.18-19.2 199.38-18 199.08-16.75 198.78-15.5 198.78-14.75L198.78-14.75ZM234.98-5.85L234.98-11.55Q233.98-11.5 233.08-11.45 232.18-11.4 231.3-11.33 230.43-11.25 229.73-11.15L229.73-11.15Q226.13-10.7 224.63-9.58 223.13-8.45 223.13-6.35L223.13-6.35Q223.13-4.6 224.2-3.73 225.28-2.85 227.03-2.85L227.03-2.85Q229.43-2.85 231.3-3.68 233.18-4.5 234.98-5.85L234.98-5.85ZM235.43 0.4L234.93-2.35Q232.58-1 230.55-0.18 228.53 0.65 226.18 0.65L226.18 0.65Q222.83 0.65 220.85-0.98 218.88-2.6 218.88-6.35L218.88-6.35Q218.88-8.3 219.88-9.75 220.88-11.2 222.5-12.18 224.13-13.15 226.18-13.7 228.23-14.25 230.38-14.4L230.38-14.4Q231.28-14.5 232.73-14.58 234.18-14.65 234.98-14.7L234.98-14.7Q234.98-16.45 234.88-17.82 234.78-19.2 234.28-20.18 233.78-21.15 232.8-21.65 231.83-22.15 230.03-22.15L230.03-22.15Q228.58-22.15 227.23-21.98 225.88-21.8 224.83-21.6L224.83-21.6Q223.58-21.35 222.53-21.05L222.53-21.05 221.73-24.5Q222.98-24.8 224.43-25.05L224.43-25.05Q225.68-25.3 227.33-25.48 228.98-25.65 230.88-25.65L230.88-25.65Q233.43-25.65 235-24.9 236.58-24.15 237.45-22.88 238.33-21.6 238.65-19.98 238.98-18.35 238.98-16.55L238.98-16.55 238.98-4.55Q238.98-3.85 239-3.08 239.03-2.3 239.1-1.55 239.18-0.8 239.28 0L239.28 0 235.43 0.4ZM246.07 0L246.07-20.6Q246.07-22.3 245.77-24.7L245.77-24.7 249.52-25.2 250.07-22.05Q251.42-23.05 252.72-23.8 254.02-24.55 255.52-25.1 257.02-25.65 258.57-25.65L258.57-25.65Q261.07-25.65 262.52-24.78 263.97-23.9 264.67-21.8L264.67-21.8Q266.72-23.25 268.95-24.45 271.17-25.65 273.57-25.65L273.57-25.65Q275.42-25.65 276.72-25.18 278.02-24.7 278.82-23.6 279.62-22.5 279.97-20.7 280.32-18.9 280.32-16.2L280.32-16.2 280.32 0 276.32 0 276.32-15.75Q276.32-17.25 276.27-18.43 276.22-19.6 275.92-20.43 275.62-21.25 274.95-21.7 274.27-22.15 273.02-22.15L273.02-22.15Q271.87-22.15 270.85-21.83 269.82-21.5 268.72-20.9 267.62-20.3 265.32-18.45L265.32-18.45 265.32 0 261.32 0 261.32-15.75Q261.32-17.25 261.27-18.43 261.22-19.6 260.92-20.43 260.62-21.25 259.95-21.7 259.27-22.15 258.02-22.15L258.02-22.15Q256.72-22.15 255.32-21.6 253.92-21.05 252.67-20.3 251.42-19.55 250.07-18.55L250.07-18.55 250.07 0 246.07 0ZM301.67-24.6L300.97-21.05Q298.87-21.7 297.25-21.93 295.62-22.15 294.27-22.15L294.27-22.15Q292.52-22.15 291.35-21.3 290.17-20.45 290.17-19.1L290.17-19.1Q290.22-17.9 291.22-17.05 292.22-16.2 293.55-15.53 294.87-14.85 296.5-14.05 298.12-13.25 299.55-12.25 300.97-11.25 301.87-9.85 302.77-8.45 302.82-6.5L302.82-6.5Q302.77-4.4 301.9-3.03 301.02-1.65 299.65-0.83 298.27 0 296.67 0.33 295.07 0.65 293.67 0.65L293.67 0.65Q291.87 0.65 289.95 0.45 288.02 0.25 285.82-0.4L285.82-0.4 286.57-4Q288.82-3.4 290.67-3.13 292.52-2.85 293.72-2.85L293.72-2.85Q294.62-2.85 295.5-3.05 296.37-3.25 297.07-3.63 297.77-4 298.2-4.6 298.62-5.2 298.62-5.95L298.62-5.95Q298.57-7.35 297.67-8.33 296.77-9.3 295.35-10.08 293.92-10.85 292.3-11.63 290.67-12.4 289.25-13.43 287.82-14.45 286.87-15.88 285.92-17.3 285.92-19.4L285.92-19.4Q285.92-20.9 286.7-22.08 287.47-23.25 288.7-24.03 289.92-24.8 291.4-25.23 292.87-25.65 294.27-25.65L294.27-25.65Q295.72-25.65 297.52-25.43 299.32-25.2 301.67-24.6L301.67-24.6Z" fill="#ffffff" data-fill-palette-color="primary"></path></g></svg></g></svg></g><g transform="matrix(1,0,0,1,163.310208,82.19376424244541)"><svg viewBox="0 0 232.209792 37.91971865860643" height="37.91971865860643" width="232.209792"><g transform="matrix(1,0,0,1,0,0)"><svg width="232.209792" viewBox="1.46 -38.38 306.91 50.120000000000005" height="37.91971865860643" data-palette-color="#ffffff"><path d="M9.18-2.27L9.18-2.27Q8.13-4.25 7.03-7.29 5.93-10.33 4.93-13.82 3.93-17.31 3.15-20.72 2.37-24.12 1.92-26.9 1.46-29.69 1.46-31.25L1.46-31.25Q1.46-31.88 1.73-32.25L1.73-32.25Q2.29-33.03 3.11-33.87 3.93-34.72 5.05-35.64L5.05-35.64Q5.42-35.94 5.74-35.94L5.74-35.94Q6.05-35.94 6.37-35.64L6.37-35.64Q7.52-34.72 8.33-33.87 9.13-33.03 9.69-32.25L9.69-32.25Q9.96-31.88 9.96-31.18L9.96-31.18 9.96-31.27Q9.96-29.66 10.39-26.92 10.82-24.17 11.51-20.91 12.21-17.65 13.02-14.49 13.84-11.33 14.65-8.86L14.65-8.86 14.79-8.86Q16.11-12.13 17.26-15.97 18.41-19.8 19.41-23.8 20.41-27.81 21.29-31.59L21.29-31.59Q21.56-32.69 22.2-33.12 22.85-33.54 24.24-33.54L24.24-33.54 27.17-33.54Q28.42-33.54 29.03-33.18 29.64-32.81 29.91-31.59L29.91-31.59Q30.54-28.76 31.35-25.61 32.15-22.46 33.02-19.35 33.89-16.24 34.78-13.53 35.67-10.82 36.47-8.86L36.47-8.86 36.62-8.86Q37.65-11.18 38.46-14.33 39.28-17.48 39.86-20.76 40.43-24.05 40.73-26.86 41.04-29.66 41.04-31.27L41.04-31.27 41.04-31.18Q41.04-31.88 41.28-32.25L41.28-32.25Q42.46-33.86 44.51-35.64L44.51-35.64Q44.9-35.94 45.19-35.94L45.19-35.94Q45.46-35.94 45.83-35.64L45.83-35.64Q46.92-34.72 47.71-33.87 48.49-33.03 49.05-32.25L49.05-32.25Q49.29-31.86 49.29-31.2L49.29-31.2Q49.29-29.15 48.83-26.27 48.36-23.39 47.57-20.13 46.78-16.87 45.79-13.62 44.8-10.38 43.71-7.56 42.63-4.74 41.58-2.78L41.58-2.78Q40.7-1.15 40-0.57 39.31 0 38.01 0L38.01 0 35.01 0Q33.91 0 33.17-0.49 32.42-0.98 31.62-2.32L31.62-2.32Q31.01-3.34 30.21-5.2 29.42-7.06 28.63-9.24 27.83-11.43 27.2-13.48 26.56-15.53 26.27-16.94L26.27-16.94Q25.93-18.55 25.7-20.06 25.46-21.56 25.42-22.41L25.42-22.41 25.22-22.41Q25.17-21.56 24.91-20.06 24.66-18.55 24.29-16.94L24.29-16.94Q23.93-15.33 23.32-13.26 22.71-11.18 21.97-9.08 21.24-6.98 20.51-5.2 19.78-3.42 19.14-2.37L19.14-2.37Q18.43-1.17 17.59-0.59 16.75 0 15.26 0L15.26 0 12.5 0Q11.21 0 10.55-0.46 9.89-0.93 9.18-2.27ZM49.29-31.27L49.29-31.27 49.29-31.18 49.29-31.2Q49.29-31.25 49.29-31.27ZM1.46-31.18L1.46-31.27 1.46-31.25 1.46-31.18ZM66.31 0.61L66.31 0.61Q62.18 0.61 59.13-0.72 56.08-2.05 54.39-4.86 52.71-7.67 52.71-12.11L52.71-12.11Q52.71-18.77 56.13-22.19 59.54-25.61 65.21-25.61L65.21-25.61Q68.89-25.61 71.45-24.29 74-22.97 75.33-20.65 76.66-18.33 76.66-15.36L76.66-15.36Q76.66-12.45 75.17-11.3 73.68-10.16 70.82-10.16L70.82-10.16 60.35-10.16Q60.54-7.64 62.19-6.32 63.84-5 66.67-5L66.67-5Q68.92-5 70.27-5.68 71.63-6.35 72.17-6.74L72.17-6.74Q72.63-7.08 73.22-7.06L73.22-7.06Q73.68-7.06 74.55-6.87 75.41-6.69 76.27-6.2L76.27-6.2Q76.88-5.88 76.88-5.32L76.88-5.32Q76.88-5 76.76-4.42L76.76-4.42Q76.68-4.08 76.51-3.43 76.34-2.78 76.07-2.22L76.07-2.22Q75.93-1.95 75.61-1.71L75.61-1.71Q75.12-1.37 74.03-0.81 72.95-0.24 71.07 0.18 69.19 0.61 66.31 0.61ZM60.3-15.16L60.3-15.16 68.26-15.16Q69.5-15.16 69.5-16.31L69.5-16.31Q69.5-18.04 68.42-19.23 67.33-20.41 65.16-20.41L65.16-20.41Q62.79-20.41 61.68-18.9 60.57-17.38 60.3-15.16ZM93.5 0.61L93.5 0.61Q90.35 0.61 88.2 0.15 86.05-0.32 84.59-1 83.12-1.68 82.03-2.37L82.03-2.37 82.03-34.33Q82.03-34.91 82.27-35.23L82.27-35.23Q83.3-36.57 85.27-38.13L85.27-38.13Q85.62-38.38 85.88-38.38L85.88-38.38Q86.2-38.38 86.49-38.13L86.49-38.13Q87.54-37.33 88.26-36.62 88.98-35.91 89.5-35.23L89.5-35.23Q89.74-34.91 89.74-34.33L89.74-34.33 89.74-22.49 89.84-22.49Q90.82-23.73 92.55-24.67 94.28-25.61 97.38-25.61L97.38-25.61Q100.85-25.61 103.1-24.01 105.34-22.41 106.44-19.62 107.54-16.82 107.54-13.21L107.54-13.21Q107.54-9.3 106.25-6.16 104.95-3.03 101.89-1.21 98.82 0.61 93.5 0.61ZM93.82-5.3L93.82-5.3Q96.65-5.3 98.14-7.19 99.63-9.08 99.63-12.6L99.63-12.6Q99.63-16.16 98.3-17.77 96.97-19.38 94.45-19.38L94.45-19.38Q92.43-19.38 91.36-18.55 90.3-17.72 89.74-16.46L89.74-16.46 89.74-6.37Q90.28-5.98 91.27-5.64 92.26-5.3 93.82-5.3ZM140.71 0L133.22 0Q130.7 0 129.4-0.63 128.09-1.27 127.64-2.71 127.19-4.15 127.19-6.54L127.19-6.54 127.19-28.47Q127.19-30.91 127.64-32.34 128.09-33.76 129.4-34.39 130.7-35.01 133.22-35.01L133.22-35.01 140.71-35.01Q145.96-35.01 149.9-33.45 153.85-31.88 156.04-28.16 158.24-24.44 158.24-17.94L158.24-17.94Q158.24-11.45 156.04-7.51 153.85-3.56 149.9-1.78 145.96 0 140.71 0L140.71 0ZM138.93-28.59L137.86-28.59Q136.24-28.59 135.66-27.91 135.07-27.22 135.07-25.56L135.07-25.56 135.07-9.45Q135.07-7.81 135.66-7.1 136.24-6.4 137.86-6.4L137.86-6.4 138.98-6.4Q144.2-6.4 147.07-8.96 149.94-11.52 149.94-17.85L149.94-17.85Q149.94-22.07 148.64-24.4 147.33-26.73 144.86-27.66 142.4-28.59 138.93-28.59L138.93-28.59ZM175.99 0.61L175.99 0.61Q171.86 0.61 168.81-0.72 165.76-2.05 164.07-4.86 162.39-7.67 162.39-12.11L162.39-12.11Q162.39-18.77 165.81-22.19 169.23-25.61 174.89-25.61L174.89-25.61Q178.58-25.61 181.13-24.29 183.68-22.97 185.01-20.65 186.34-18.33 186.34-15.36L186.34-15.36Q186.34-12.45 184.85-11.3 183.36-10.16 180.51-10.16L180.51-10.16 170.03-10.16Q170.23-7.64 171.87-6.32 173.52-5 176.35-5L176.35-5Q178.6-5 179.96-5.68 181.31-6.35 181.85-6.74L181.85-6.74Q182.31-7.08 182.9-7.06L182.9-7.06Q183.36-7.06 184.23-6.87 185.09-6.69 185.95-6.2L185.95-6.2Q186.56-5.88 186.56-5.32L186.56-5.32Q186.56-5 186.44-4.42L186.44-4.42Q186.36-4.08 186.19-3.43 186.02-2.78 185.75-2.22L185.75-2.22Q185.61-1.95 185.29-1.71L185.29-1.71Q184.8-1.37 183.72-0.81 182.63-0.24 180.75 0.18 178.87 0.61 175.99 0.61ZM169.98-15.16L169.98-15.16 177.94-15.16Q179.19-15.16 179.19-16.31L179.19-16.31Q179.19-18.04 178.1-19.23 177.01-20.41 174.84-20.41L174.84-20.41Q172.47-20.41 171.36-18.9 170.25-17.38 169.98-15.16ZM198.67 0.61L198.67 0.61Q196.05 0.61 194.33 0.17 192.61-0.27 191.57-0.89 190.54-1.51 189.95-2.03L189.95-2.03Q189.51-2.44 189.85-2.95L189.85-2.95 192.34-6.64Q192.88-7.42 193.56-6.74L193.56-6.74Q194.27-6.05 195.48-5.41 196.69-4.76 198.5-4.76L198.5-4.76Q200.11-4.76 201.14-5.31 202.18-5.86 202.18-6.91L202.18-6.91Q202.18-7.64 201.72-8.11 201.25-8.57 200.08-9.06 198.91-9.55 196.81-10.3L196.81-10.3Q193.71-11.43 192.12-13.01 190.54-14.6 190.54-17.65L190.54-17.65Q190.54-20.46 192.09-22.22 193.64-23.97 196.07-24.79 198.5-25.61 201.13-25.61L201.13-25.61Q204.48-25.61 205.83-24.99 207.19-24.37 207.58-24.02L207.58-24.02Q207.94-23.71 208.09-23.29L208.09-23.29Q208.41-22.34 208.58-20.78L208.58-20.78Q208.68-19.87 208.11-19.58L208.11-19.58Q207.82-19.41 207.19-19.21 206.55-19.02 205.92-18.87 205.28-18.73 204.97-18.73L204.97-18.73Q204.87-18.73 204.76-18.79 204.65-18.85 204.38-19.09L204.38-19.09Q204.06-19.41 203.29-19.82 202.52-20.24 201.18-20.24L201.18-20.24Q199.86-20.24 198.97-19.81 198.08-19.38 198.08-18.31L198.08-18.31Q198.08-17.14 199.22-16.55 200.35-15.97 202.96-15.04L202.96-15.04Q205.01-14.33 206.54-13.49 208.07-12.65 208.9-11.29 209.73-9.94 209.73-7.64L209.73-7.64Q209.73-4.66 208.1-2.84 206.48-1.03 203.95-0.21 201.43 0.61 198.67 0.61ZM213.36-33.2L213.36-33.2Q213.36-33.52 213.56-33.76 213.75-34.01 214.07-34.4L214.07-34.4Q214.75-35.18 215.66-36.05 216.56-36.91 217.49-37.72L217.49-37.72Q218.07-38.18 218.37-38.18L218.37-38.18Q218.66-38.18 219.27-37.72L219.27-37.72Q221.25-36.01 222.64-34.4L222.64-34.4Q222.96-34.03 223.16-33.78 223.37-33.52 223.37-33.2L223.37-33.2Q223.37-32.89 223.16-32.64 222.96-32.4 222.61-31.98L222.61-31.98Q221.96-31.23 221.08-30.36 220.2-29.49 219.27-28.71L219.27-28.71Q218.93-28.42 218.73-28.33 218.54-28.25 218.37-28.25L218.37-28.25Q218.2-28.25 218.01-28.33 217.83-28.42 217.44-28.71L217.44-28.71Q216.46-29.49 215.61-30.36 214.75-31.23 214.07-32.03L214.07-32.03Q213.75-32.42 213.56-32.65 213.36-32.89 213.36-33.2ZM222.2-23.71L222.2-1.29Q222.2-0.56 221.89-0.28 221.59 0 220.86 0L220.86 0 215.83 0Q215.09 0 214.79-0.28 214.48-0.56 214.48-1.29L214.48-1.29 214.48-23.71Q214.48-24.44 214.79-24.72 215.09-25 215.83-25L215.83-25 220.86-25Q221.59-25 221.89-24.72 222.2-24.44 222.2-23.71L222.2-23.71ZM253.01-22.66L253.01-22.66 253.01-2.86Q253.01 4.27 248.94 8.01 244.88 11.74 237.8 11.74L237.8 11.74Q234.87 11.74 233.16 11.32 231.45 10.89 230.57 10.5L230.57 10.5Q230.01 10.23 229.84 9.94L229.84 9.94Q229.59 9.55 229.29 8.79 228.98 8.03 228.72 7.13L228.72 7.13Q228.64 6.79 228.69 6.62L228.69 6.62Q228.79 6.37 229.06 6.1L229.06 6.1Q229.5 5.66 230.31 5.08 231.13 4.49 231.57 4.32L231.57 4.32Q232.04 4.15 232.43 4.37L232.43 4.37Q233.06 4.71 234.25 5.14 235.43 5.57 237.58 5.57L237.58 5.57Q241 5.57 243.14 3.81 245.29 2.05 245.29-1.61L245.29-1.61 245.29-2.49 245.19-2.49Q244.66-1.81 243.8-1.1 242.95-0.39 241.59 0.1 240.24 0.59 238.11 0.59L238.11 0.59Q234.43 0.59 232.07-1.01 229.72-2.61 228.61-5.42 227.49-8.23 227.49-11.82L227.49-11.82Q227.49-15.75 228.79-18.87 230.08-22 233.13-23.82 236.19-25.63 241.48-25.63L241.48-25.63Q244.66-25.63 246.82-25.17 248.98-24.71 250.44-24.02 251.91-23.34 253.01-22.66ZM241.22-19.73L241.22-19.73Q238.38-19.73 236.89-17.82 235.4-15.92 235.4-11.91L235.4-11.91Q235.4-5.64 240.58-5.64L240.58-5.64Q242.61-5.64 243.68-6.47 244.76-7.3 245.29-8.57L245.29-8.57 245.29-18.65Q244.76-19.04 243.78-19.38 242.8-19.73 241.22-19.73ZM283.77-15.55L283.77-15.55 283.77-1.29Q283.77-0.56 283.46-0.28 283.16 0 282.42 0L282.42 0 277.39 0Q276.66 0 276.36-0.28 276.05-0.56 276.05-1.29L276.05-1.29 276.05-14.28Q276.05-16.94 274.93-18.16 273.81-19.38 271.88-19.38L271.88-19.38Q269.95-19.38 268.91-18.55 267.87-17.72 267.31-16.46L267.31-16.46 267.31-1.29Q267.31-0.56 267.01-0.28 266.7 0 265.97 0L265.97 0 260.94 0Q260.21 0 259.9-0.28 259.6-0.56 259.6-1.29L259.6-1.29 259.6-21.75Q259.6-22.34 259.84-22.66L259.84-22.66Q260.35-23.34 261.07-24.05 261.79-24.76 262.84-25.56L262.84-25.56Q263.16-25.81 263.45-25.81L263.45-25.81Q263.72-25.81 264.06-25.56L264.06-25.56Q265.09-24.76 265.82-24.02 266.55-23.29 267.12-22.51L267.12-22.51 267.24-22.51Q267.65-23.05 268.48-23.77 269.31-24.49 270.81-25.05 272.32-25.61 274.66-25.61L274.66-25.61Q276.96-25.61 279.03-24.68 281.11-23.75 282.44-21.56 283.77-19.36 283.77-15.55ZM297.31 0.61L297.31 0.61Q294.7 0.61 292.98 0.17 291.26-0.27 290.22-0.89 289.18-1.51 288.6-2.03L288.6-2.03Q288.16-2.44 288.5-2.95L288.5-2.95 290.99-6.64Q291.53-7.42 292.21-6.74L292.21-6.74Q292.92-6.05 294.13-5.41 295.34-4.76 297.14-4.76L297.14-4.76Q298.75-4.76 299.79-5.31 300.83-5.86 300.83-6.91L300.83-6.91Q300.83-7.64 300.37-8.11 299.9-8.57 298.73-9.06 297.56-9.55 295.46-10.3L295.46-10.3Q292.36-11.43 290.77-13.01 289.18-14.6 289.18-17.65L289.18-17.65Q289.18-20.46 290.73-22.22 292.28-23.97 294.71-24.79 297.14-25.61 299.78-25.61L299.78-25.61Q303.12-25.61 304.48-24.99 305.83-24.37 306.23-24.02L306.23-24.02Q306.59-23.71 306.74-23.29L306.74-23.29Q307.06-22.34 307.23-20.78L307.23-20.78Q307.32-19.87 306.76-19.58L306.76-19.58Q306.47-19.41 305.83-19.21 305.2-19.02 304.56-18.87 303.93-18.73 303.61-18.73L303.61-18.73Q303.52-18.73 303.41-18.79 303.3-18.85 303.03-19.09L303.03-19.09Q302.71-19.41 301.94-19.82 301.17-20.24 299.83-20.24L299.83-20.24Q298.51-20.24 297.62-19.81 296.73-19.38 296.73-18.31L296.73-18.31Q296.73-17.14 297.86-16.55 299-15.97 301.61-15.04L301.61-15.04Q303.66-14.33 305.19-13.49 306.71-12.65 307.54-11.29 308.37-9.94 308.37-7.64L308.37-7.64Q308.37-4.66 306.75-2.84 305.13-1.03 302.6-0.21 300.07 0.61 297.31 0.61Z" opacity="1" transform="matrix(1,0,0,1,0,0)" fill="#ffffff" class="slogan-text-1" data-fill-palette-color="secondary" id="text-1"></path></svg></g></svg></g></svg></g></svg></g><g transform="matrix(1,0,0,1,432.9127401372953,0)"><svg viewBox="0 0 151.5580115158826 165.99683336925366" height="165.99683336925366" width="151.5580115158826"><g><svg xmlns="http://www.w3.org/2000/svg" xmlns:xlink="http://www.w3.org/1999/xlink" version="1.1" x="0" y="0" viewBox="10.685 6.509 79.417 86.983" enable-background="new 0 0 100 100" xml:space="preserve" height="165.99683336925366" width="151.5580115158826" class="icon-icon-0" data-fill-palette-color="accent" id="icon-0"><g fill="#ffffff" data-fill-palette-color="accent"><path d="M89.102 61.742H85.102A1 1 0 0 0 84.102 62.742V76.617H55.552C55.633 76.563 55.719 76.524 55.798 76.468H78.31C80.791 76.468 82.81 74.449 82.81 71.968S80.791 67.468 78.31 67.468H72.234L66.03 55.993A4.5 4.5 0 0 0 62.963 53.722 4.54 4.54 0 0 0 59.253 54.625L50.118 61.966H38.81C34.399 61.966 30.81 65.555 30.81 69.966A8 8 0 0 0 34.371 76.616H16.685V62.742A1 1 0 0 0 15.685 61.742H11.685A1 1 0 0 0 10.685 62.742V92.492A1 1 0 0 0 11.685 93.492H15.685A1 1 0 0 0 16.685 92.492V82.659H84.102V92.492A1 1 0 0 0 85.102 93.492H89.102A1 1 0 0 0 90.102 92.492V62.742A1 1 0 0 0 89.102 61.742M32.81 69.967C32.81 66.658 35.501 63.967 38.81 63.967H50.483L50.886 63.946 60.504 56.186A2.52 2.52 0 0 1 62.566 55.684C63.295 55.83 63.916 56.29 64.27 56.945L71.042 69.468H78.31C79.689 69.468 80.81 70.589 80.81 71.968S79.689 74.468 78.31 74.468H55.118L54.846 74.682A5.94 5.94 0 0 1 51.144 75.967H38.81C35.501 75.967 32.81 73.275 32.81 69.967M14.685 91.492H12.685V63.742H14.685zM16.685 80.659V78.617H84.102V80.659zM88.102 91.492H86.102V63.742H88.102z" fill="#ffffff" data-fill-palette-color="accent"></path><path d="M24.692 76.465C27.816 76.465 30.358 73.923 30.358 70.799S27.816 65.133 24.692 65.133 19.025 67.675 19.025 70.799 21.567 76.465 24.692 76.465M24.692 67.133C26.713 67.133 28.358 68.778 28.358 70.799S26.713 74.465 24.692 74.465 21.025 72.82 21.025 70.799 22.67 67.133 24.692 67.133" fill="#ffffff" data-fill-palette-color="accent"></path><path d="M57 68.679L57.171 69.468H65.357L61.298 61.962 55.94 66.27 56.361 67.01C56.659 67.536 56.874 68.098 57 68.679M60.681 65.024L62.001 67.467H58.74A8 8 0 0 0 58.483 66.79z" fill="#ffffff" data-fill-palette-color="accent"></path><path d="M38.644 75.301H51.81C54.016 75.301 55.81 73.507 55.81 71.301S54.016 67.301 51.81 67.301H38.644C36.438 67.301 34.644 69.095 34.644 71.301S36.438 75.301 38.644 75.301M38.644 69.301H51.81C52.913 69.301 53.81 70.198 53.81 71.301S52.913 73.301 51.81 73.301H38.644C37.541 73.301 36.644 72.404 36.644 71.301S37.541 69.301 38.644 69.301" fill="#ffffff" data-fill-palette-color="accent"></path><path d="M21.692 62.826C23.163 62.826 24.359 61.63 24.359 60.159S23.163 57.492 21.692 57.492 19.025 58.688 19.025 60.159 20.222 62.826 21.692 62.826M21.692 59.492A0.667 0.667 0 1 1 21.691 60.827 0.667 0.667 0 0 1 21.692 59.492" fill="#ffffff" data-fill-palette-color="accent"></path><path d="M20.692 53.004C20.692 55.212 22.488 57.008 24.696 57.008S28.7 55.212 28.7 53.004 26.904 49 24.696 49 20.692 50.796 20.692 53.004M26.7 53.004C26.7 54.108 25.801 55.008 24.696 55.008S22.692 54.109 22.692 53.004 23.591 51 24.696 51 26.7 51.899 26.7 53.004" fill="#ffffff" data-fill-palette-color="accent"></path><path d="M42.319 51.929C54.842 51.929 65.03 41.741 65.03 29.22 65.03 16.697 54.842 6.509 42.319 6.509S19.607 16.697 19.607 29.22C19.607 41.741 29.795 51.929 42.319 51.929M42.319 8.508C53.739 8.508 63.03 17.799 63.03 29.219S53.739 49.928 42.319 49.928 21.607 40.638 21.607 29.219 30.898 8.508 42.319 8.508" fill="#ffffff" data-fill-palette-color="accent"></path><path d="M37.774 18.911V42.536A1 1 0 0 0 38.774 43.536H53.148A1 1 0 0 0 54.148 42.536V18.911A1 1 0 0 0 53.148 17.911H38.774A1 1 0 0 0 37.774 18.911M45.126 19.911H47.018A5.82 5.82 0 0 0 52.149 24.694V36.754A5.82 5.82 0 0 0 47.018 41.537H45.126A5.815 5.815 0 0 0 39.774 36.743V24.705A5.815 5.815 0 0 0 45.126 19.911M39.774 38.761A3.8 3.8 0 0 1 43.068 41.536H39.774zM49.075 41.536A3.8 3.8 0 0 1 52.148 38.783V41.536zM52.148 22.664A3.8 3.8 0 0 1 49.075 19.911H52.148zM43.068 19.911A3.8 3.8 0 0 1 39.774 22.686V19.911z" fill="#ffffff" data-fill-palette-color="accent"></path><path d="M33.027 42.058A1 1 0 0 0 33.984 40.764L28.39 22.537 31.874 21.468 35.079 39.68A1 1 0 0 0 37.049 39.334L33.127 17.05 42.09 15.473A1 1 0 0 0 41.744 13.503L31.796 15.253A1 1 0 0 0 30.984 16.411L31.525 19.482 26.847 20.918A1 1 0 0 0 26.184 22.167L32.072 41.35A1 1 0 0 0 33.027 42.058" fill="#ffffff" data-fill-palette-color="accent"></path><path d="M45.962 34.536C48.064 34.536 49.775 32.826 49.775 30.723S48.065 26.91 45.962 26.91 42.149 28.62 42.149 30.723 43.86 34.536 45.962 34.536M45.962 28.911C46.962 28.911 47.775 29.724 47.775 30.724S46.962 32.537 45.962 32.537 44.149 31.724 44.149 30.724 44.962 28.911 45.962 28.911" fill="#ffffff" data-fill-palette-color="accent"></path></g></svg></g></svg></g></svg></g><defs></defs></svg><rect width="395.52" height="112.33251167573667" fill="none" stroke="none" visibility="hidden"></rect></g></svg></g></svg>